<svg width="46" height="53" viewBox="0 0 46 53" fill="none" xmlns="http://www.w3.org/2000/svg">
<path d="M35.7287 7.65321V9.66265L34.1536 10.7613V9.66265H12.0458V10.7613L10.4707 9.66265V7.65321H35.7287ZM38.2475 37.8497V35.7044L36.3268 34.3281V35.7044H9.36083V34.3281L7.44015 35.7044V37.8497H38.2475ZM35.4728 34.1865V32.0874L33.8977 30.9396V32.0874H11.7899V30.9396L10.2148 32.0874V34.1865H35.4728ZM16.8309 11.3107H15.0863H13.4747H13.3418V19.2704V20.8432H15.0863H16.8309V28.8145H15.0863V22.1125H13.3418V30.3526H13.4747H15.0863H16.8309H18.5755V28.8116V20.8403V19.2675H16.8309H15.0863V12.8488H16.8309V17.9982H18.5755V12.8488V11.3078H16.8309V11.3107ZM25.5537 17.9982V12.8488H25.5604V11.3078H25.5537H23.8091H22.0646H20.32V12.8488V28.8116V30.3526H22.0646H23.8091H25.5537H25.5604V28.8116H25.5537V19.2675H25.2713H23.8091H22.9385V20.797H23.8091V28.8116H22.0646V12.8488H23.8091V17.9982H25.5537ZM30.7874 11.3107H29.0428H27.3049V19.2733V20.8403H29.0428H30.7874V28.8116H29.0428V22.1125H27.3049V30.3526H29.0428H30.7874H32.532V28.8116V20.8403V19.2733V19.2675H30.7874V19.2733H29.0428V12.8488H30.7874V17.9982H32.532V12.8488V11.3078H30.7874V11.3107ZM39.1281 5.86062H41.4243V3.80492H4.57574V5.86062H6.87192H39.1281ZM43.6872 20.8317C43.6872 20.8317 43.6872 34.9498 43.6872 35.9154C43.6872 39.6972 22.9983 50.9414 22.9983 50.9414C22.9983 50.9414 2.30947 39.5931 2.30947 35.9154C2.30947 34.9469 2.30947 20.8317 2.30947 20.8317H0C0 20.8317 0 32.3939 0 35.9154C0 41.4031 22.9983 53 22.9983 53C22.9983 53 45.9967 41.4002 45.9967 35.9154C45.9967 32.3939 45.9967 20.8317 45.9967 20.8317H43.6872ZM41.4243 3.80492V5.85773C42.6205 5.85773 43.5942 6.68752 43.5942 7.70814C43.5942 8.73166 42.6239 9.55856 41.4243 9.55856C40.228 9.55856 39.2544 8.72877 39.2544 7.70814C39.2544 7.68791 39.2577 7.67056 39.2577 7.65321H36.8518C36.8518 7.67056 36.8485 7.6908 36.8485 7.70814C36.8485 9.86504 38.8955 11.6143 41.4243 11.6143C43.9497 11.6143 46 9.86504 46 7.70814C46 5.55125 43.953 3.80492 41.4243 3.80492ZM0.00332306 7.71104C0.00332306 9.86793 2.05028 11.6172 4.57906 11.6172C7.10785 11.6172 9.15481 9.86793 9.15481 7.71104C9.15481 7.6908 9.15149 7.67345 9.15149 7.6561H6.74565C6.74565 7.67345 6.74897 7.69369 6.74897 7.71104C6.74897 8.73455 5.77866 9.56145 4.57906 9.56145C3.38279 9.56145 2.40916 8.73166 2.40916 7.71104C2.40916 6.68752 3.37947 5.86062 4.57906 5.86062V3.80781C2.05028 3.80492 0.00332306 5.55414 0.00332306 7.71104ZM2.31279 10.3016V9.66554H1.73127C1.87084 9.9113 2.06689 10.1281 2.31279 10.3016ZM0.00332306 11.1835V19.2704H2.31279V12.5944C1.37571 12.3429 0.571553 11.8427 0.00332306 11.1835ZM44.272 9.66554H43.6905V10.3016C43.9331 10.1281 44.1325 9.9113 44.272 9.66554ZM43.6872 12.5944V19.2675H45.9967V11.1835C45.4318 11.8427 44.6243 12.3429 43.6872 12.5944ZM35.7287 0H10.4707V2.00944H35.7287V0Z" fill="url(#paint0_linear_414_1829)"/>
<defs>
<linearGradient id="paint0_linear_414_1829" x1="0.00229286" y1="26.5001" x2="45.9997" y2="26.5001" gradientUnits="userSpaceOnUse">
<stop offset="6.70927e-07" stop-color="#D4953D"/>
<stop offset="1" stop-color="#F7C77B"/>
</linearGradient>
</defs>
</svg>
